<mxfile host="app.diagrams.net" modified="2022-05-26T10:49:42.692Z" agent="5.0 (Macintosh; Intel Mac OS X 10_15_7) AppleWebKit/537.36 (KHTML, like Gecko) Chrome/101.0.4951.64 Safari/537.36" etag="7o1mXme560oZNoW8Pr6p" version="18.1.2" type="github">
  <diagram id="YpyryGVLasRSu2BAD9Dc" name="Page-1">
    <mxGraphModel dx="1234" dy="714" grid="1" gridSize="10" guides="1" tooltips="1" connect="1" arrows="1" fold="1" page="1" pageScale="1" pageWidth="827" pageHeight="1169" math="0" shadow="0">
      <root>
        <mxCell id="0" />
        <mxCell id="1" parent="0" />
        <mxCell id="wcY-LexX32uU3ioSOe6K-21" value="" style="rounded=0;whiteSpace=wrap;html=1;" vertex="1" parent="1">
          <mxGeometry x="20" y="30" width="760" height="490" as="geometry" />
        </mxCell>
        <mxCell id="wcY-LexX32uU3ioSOe6K-3" value="" style="edgeStyle=orthogonalEdgeStyle;rounded=0;orthogonalLoop=1;jettySize=auto;html=1;" edge="1" parent="1" source="wcY-LexX32uU3ioSOe6K-1" target="wcY-LexX32uU3ioSOe6K-2">
          <mxGeometry relative="1" as="geometry" />
        </mxCell>
        <mxCell id="wcY-LexX32uU3ioSOe6K-1" value="START" style="ellipse;whiteSpace=wrap;html=1;aspect=fixed;" vertex="1" parent="1">
          <mxGeometry x="80" y="50" width="80" height="80" as="geometry" />
        </mxCell>
        <mxCell id="wcY-LexX32uU3ioSOe6K-5" value="no" style="edgeStyle=orthogonalEdgeStyle;rounded=0;orthogonalLoop=1;jettySize=auto;html=1;" edge="1" parent="1" source="wcY-LexX32uU3ioSOe6K-2" target="wcY-LexX32uU3ioSOe6K-4">
          <mxGeometry relative="1" as="geometry" />
        </mxCell>
        <mxCell id="wcY-LexX32uU3ioSOe6K-12" value="yes" style="edgeStyle=orthogonalEdgeStyle;rounded=0;orthogonalLoop=1;jettySize=auto;html=1;" edge="1" parent="1" source="wcY-LexX32uU3ioSOe6K-2" target="wcY-LexX32uU3ioSOe6K-11">
          <mxGeometry relative="1" as="geometry" />
        </mxCell>
        <mxCell id="wcY-LexX32uU3ioSOe6K-2" value="Has task finished?" style="rhombus;whiteSpace=wrap;html=1;" vertex="1" parent="1">
          <mxGeometry x="40" y="160" width="160" height="50" as="geometry" />
        </mxCell>
        <mxCell id="wcY-LexX32uU3ioSOe6K-8" value="no" style="edgeStyle=orthogonalEdgeStyle;rounded=0;orthogonalLoop=1;jettySize=auto;html=1;" edge="1" parent="1" source="wcY-LexX32uU3ioSOe6K-4" target="wcY-LexX32uU3ioSOe6K-7">
          <mxGeometry relative="1" as="geometry" />
        </mxCell>
        <mxCell id="wcY-LexX32uU3ioSOe6K-10" value="yes" style="edgeStyle=orthogonalEdgeStyle;rounded=0;orthogonalLoop=1;jettySize=auto;html=1;" edge="1" parent="1" source="wcY-LexX32uU3ioSOe6K-4" target="wcY-LexX32uU3ioSOe6K-9">
          <mxGeometry relative="1" as="geometry" />
        </mxCell>
        <mxCell id="wcY-LexX32uU3ioSOe6K-4" value="Has task started?" style="rhombus;whiteSpace=wrap;html=1;" vertex="1" parent="1">
          <mxGeometry x="40" y="260" width="160" height="50" as="geometry" />
        </mxCell>
        <mxCell id="wcY-LexX32uU3ioSOe6K-7" value="Queued" style="whiteSpace=wrap;html=1;fillColor=#d5e8d4;strokeColor=#82b366;" vertex="1" parent="1">
          <mxGeometry x="60" y="360" width="120" height="60" as="geometry" />
        </mxCell>
        <mxCell id="wcY-LexX32uU3ioSOe6K-9" value="Started" style="whiteSpace=wrap;html=1;fillColor=#d5e8d4;strokeColor=#82b366;" vertex="1" parent="1">
          <mxGeometry x="250" y="255" width="120" height="60" as="geometry" />
        </mxCell>
        <mxCell id="wcY-LexX32uU3ioSOe6K-14" value="no" style="edgeStyle=orthogonalEdgeStyle;rounded=0;orthogonalLoop=1;jettySize=auto;html=1;" edge="1" parent="1" source="wcY-LexX32uU3ioSOe6K-11" target="wcY-LexX32uU3ioSOe6K-13">
          <mxGeometry relative="1" as="geometry" />
        </mxCell>
        <mxCell id="wcY-LexX32uU3ioSOe6K-16" value="yes" style="edgeStyle=orthogonalEdgeStyle;rounded=0;orthogonalLoop=1;jettySize=auto;html=1;" edge="1" parent="1" source="wcY-LexX32uU3ioSOe6K-11" target="wcY-LexX32uU3ioSOe6K-15">
          <mxGeometry relative="1" as="geometry" />
        </mxCell>
        <mxCell id="wcY-LexX32uU3ioSOe6K-11" value="Has task aborted?" style="rhombus;whiteSpace=wrap;html=1;" vertex="1" parent="1">
          <mxGeometry x="390" y="160" width="160" height="50" as="geometry" />
        </mxCell>
        <mxCell id="wcY-LexX32uU3ioSOe6K-18" value="yes" style="edgeStyle=orthogonalEdgeStyle;rounded=0;orthogonalLoop=1;jettySize=auto;html=1;" edge="1" parent="1" source="wcY-LexX32uU3ioSOe6K-13" target="wcY-LexX32uU3ioSOe6K-17">
          <mxGeometry relative="1" as="geometry" />
        </mxCell>
        <mxCell id="wcY-LexX32uU3ioSOe6K-20" value="no" style="edgeStyle=orthogonalEdgeStyle;rounded=0;orthogonalLoop=1;jettySize=auto;html=1;" edge="1" parent="1" source="wcY-LexX32uU3ioSOe6K-13" target="wcY-LexX32uU3ioSOe6K-19">
          <mxGeometry relative="1" as="geometry" />
        </mxCell>
        <mxCell id="wcY-LexX32uU3ioSOe6K-13" value="Has task timed out?" style="rhombus;whiteSpace=wrap;html=1;" vertex="1" parent="1">
          <mxGeometry x="390" y="260" width="160" height="50" as="geometry" />
        </mxCell>
        <mxCell id="wcY-LexX32uU3ioSOe6K-15" value="Aborted" style="whiteSpace=wrap;html=1;fillColor=#d5e8d4;strokeColor=#82b366;" vertex="1" parent="1">
          <mxGeometry x="610" y="155" width="120" height="60" as="geometry" />
        </mxCell>
        <mxCell id="wcY-LexX32uU3ioSOe6K-17" value="Timed out" style="whiteSpace=wrap;html=1;fillColor=#d5e8d4;strokeColor=#82b366;" vertex="1" parent="1">
          <mxGeometry x="610" y="255" width="120" height="60" as="geometry" />
        </mxCell>
        <mxCell id="wcY-LexX32uU3ioSOe6K-19" value="Finished" style="whiteSpace=wrap;html=1;fillColor=#d5e8d4;strokeColor=#82b366;" vertex="1" parent="1">
          <mxGeometry x="410" y="360" width="120" height="60" as="geometry" />
        </mxCell>
      </root>
    </mxGraphModel>
  </diagram>
</mxfile>
